<svg xmlns="http://www.w3.org/2000/svg" viewBox="0 0 96 96" id="projects"><circle cx="48" cy="48" r="48" fill="#1f68b2"></circle><path fill="#f1f2f2" d="M75.511 37.489a.5.5 0 0 0 .5-.5v-3a.5.5 0 0 0-.5-.5h-1.5v-1.494a.5.5 0 0 0-.5-.5h-23a.5.5 0 0 0-.5.5v11.49H46.99v-6.496c0-1.93-1.57-3.5-3.5-3.5h-20c-1.93 0-3.5 1.57-3.5 3.5v4.006a.5.5 0 0 0 .5.5h5.5v19.5a.5.5 0 0 0 .5.5h3.501a3.002 3.002 0 0 0 2.999 2.99v.02h25c.033 0 .064-.009.097-.01h15.425a.5.5 0 0 0 .5-.5V47.489h1.5a.5.5 0 0 0 .5-.5v-3a.5.5 0 0 0-.5-.5h-1.5v-1h1.5a.5.5 0 0 0 .5-.5v-3a.5.5 0 0 0-.5-.5h-1.5v-1h1.499zm-.5-3v2h-1v-2h1zm-24-1.994h18v19.232l-2.777 1.852a.501.501 0 0 0-.223.416v9.5h-5.794a2.975 2.975 0 0 0 .772-1.99v-15.02c0-1.654-1.346-3-3-3H51.01v-10.99zm6.978 11.99c1.103 0 2 .897 2 2v2.8a2.976 2.976 0 0 0-2-.78h-11v-4.02h11zm-37-3.99v-3.506c0-1.378 1.121-2.5 2.5-2.5s2.5 1.122 2.5 2.5V40.495h-5zm6 .5v-4.006c0-.98-.407-1.864-1.058-2.5h17.558c1.379 0 2.5 1.122 2.5 2.5v11.516h-8c-.101 0-.197.02-.296.03a.5.5 0 0 0-.204-.046h-8a.5.5 0 0 0 0 1h6.293a2.985 2.985 0 0 0-.792 2h-5.502a.5.5 0 0 0 0 1h5.5v2h-5.5a.5.5 0 0 0 0 1h5.5v2h-5.5a.5.5 0 0 0 0 1h5.5v2.006h-8v-19.5zm6 22.51v-.02a2.002 2.002 0 0 1-1.999-1.99h3.999v.01c0 1.103-.897 2-2 2zm3-2v-10c0-1.103.897-2 2-2h20c1.103 0 2 .897 2 2v10c0 1.07-.846 1.939-1.903 1.99h-7.575c-.017 0-.032.008-.048.01H35.224a2.993 2.993 0 0 0 .765-2zm37.022 1.99h-6v-9.232l2.777-1.852a.501.501 0 0 0 .223-.416v-19.5h3v31zm2-19.006v2h-1v-2h1zm0-5v2h-1v-2h1z"></path><path fill="#f1f2f2" d="M32.489 37.489h8a.5.5 0 0 0 0-1h-8a.5.5 0 0 0 0 1zm-3 3h14a.5.5 0 0 0 0-1h-14a.5.5 0 0 0 0 1zm0 3h14a.5.5 0 0 0 0-1h-14a.5.5 0 0 0 0 1zm0 3h14a.5.5 0 0 0 0-1h-14a.5.5 0 0 0 0 1zm36.522-7.494v-3a.5.5 0 0 0-.5-.5h-8a.5.5 0 0 0-.5.5v3a.5.5 0 0 0 .5.5h8a.5.5 0 0 0 .5-.5zm-1-.5h-7v-2h7v2z"></path></svg>